# xmcd
#
# Track frame offsets:
#	150
#	20375
#	39583
#	56217
#	72009
#	88307
#	106979
#	127311
#	143316
#	163360
#	181617
#
# Disc length: 2657 seconds
#
# Revision: 2
# Processed by: cddbd v1.5.2PL0 Copyright (c) Steve Scherf et al.
# Submitted via: audiograbber 1.83.01
#
DISCID=970a5f0b
DTITLE=Jerry Jeff Walker - Moon Child
DYEAR=2009
DGENRE=Country
TTITLE0=Moon Child
TTITLE1=Tonight I Think I'm Gonna Go Downtown
TTITLE2=The Poet Is Not In Today
TTITLE3=Dare Of An Angel
TTITLE4=This Wedding Day
TTITLE5=Down In Belize
TTITLE6=Caribbean Moon
TTITLE7=What True Love Is All About
TTITLE8=I'll Be Your San Antone Rose
TTITLE9=The Vows
TTITLE10=Back Home Again
EXTD=
EXTT0=
EXTT1=
EXTT2=
EXTT3=
EXTT4=
EXTT5=
EXTT6=
EXTT7=
EXTT8=
EXTT9=
EXTT10=
PLAYORDER=
